<?xml version="1.0" encoding="utf-8"?>
<!-- Generator: Adobe Illustrator 25.4.1, SVG Export Plug-In . SVG Version: 6.00 Build 0)  -->
<svg version="1.1" xmlns="http://www.w3.org/2000/svg" xmlns:xlink="http://www.w3.org/1999/xlink" x="0px" y="0px"
	 viewBox="0 0 2880 2880" style="enable-background:new 0 0 2880 2880;" xml:space="preserve">
<style type="text/css">
	.st0{fill:none;stroke:#E52925;stroke-width:12;stroke-miterlimit:10;}
	.st1{fill:#010016;}
	.st2{fill:#06FC2E;stroke:#000000;stroke-linecap:round;stroke-miterlimit:10;}
	.st3{fill:#FFFFFF;stroke:#000000;stroke-linecap:round;stroke-miterlimit:10;}
</style>
<g id="Layer_3">
	<rect x="10.2" y="35.3" class="st0" width="1429.5" height="1398.8"/>
</g>
<g id="Layer_2">
	<circle class="st1" cx="1439.7" cy="1451.1" r="1440"/>
</g>
<g id="Layer_1">
	<path class="st2" d="M1717.6,2832.8h-545v26.1h545V2832.8z"/>
	<path class="st2" d="M2211.5,2633.1H678.7v34.1H2212v-34.1H2211.5z"/>
	<path class="st2" d="M432.8,2433.3h779.9v42.7H432.8V2433.3z"/>
	<path class="st2" d="M2457.4,2433.3H1677v42.7h779.9v-42.7H2457.4z"/>
	<path class="st2" d="M268.7,2233.6h533.5v50.7H268.7V2233.6z"/>
	<path class="st2" d="M2621.5,2233.6h-533v50.7H2622v-50.7H2621.5z"/>
	<path class="st3" d="M153.8,2033.8H610v58.7H153.8V2033.8z"/>
	<path class="st3" d="M2736.5,2033.8h-456.2v58.7h456.2V2033.8z"/>
	<path class="st2" d="M1982.6,35.3h-1075v140.5h1074.5V35.3H1982.6z"/>
	<path class="st2" d="M1684.5,2506.6h-478.3v26.1h478.3V2506.6z"/>
	<path class="st2" d="M2110.6,2306.9h-1331v34.1h1331V2306.9z"/>
	<path class="st3" d="M2312.4,2107.1H577.9v42.2h1734.5L2312.4,2107.1L2312.4,2107.1z"/>
	<polygon class="st3" points="2530.2,435.3 1900.3,435.3 1900.3,508.6 989.9,508.6 989.9,435.3 360,435.3 360,558.8 762.5,558.8 
		762.5,616 2127.7,616 2127.7,558.8 2530.2,558.8 	"/>
	<polygon class="st3" points="2323.4,235.1 566.8,235.1 566.8,367.6 1153,367.6 1153,424.3 1737.2,424.3 1737.2,367.6 2323.4,367.6 
			"/>
	<path class="st3" d="M1908.3,1971.6H981.9v26.1h927v-26.1H1908.3z"/>
	<polygon class="st2" points="801.2,1572.1 801.2,1507.4 401.7,1507.4 401.7,1434.1 10.2,1434.1 10.2,1517.4 341,1517.4 341,1574.6 
		744.5,1574.6 744.5,1614.3 1016,1614.3 1016,1572.1 	"/>
	<polygon class="st2" points="2880,1434.1 2488.5,1434.1 2488.5,1507.4 2089,1507.4 2089,1572.1 1874.2,1572.1 1874.2,1614.3 
		2145.7,1614.3 2145.7,1574.6 2549.3,1574.6 2549.3,1517.4 2880,1517.4 	"/>
	<polygon class="st2" points="799.2,1372.3 799.2,1307.6 413.2,1307.6 413.2,1234.3 18.2,1234.3 18.2,1325.7 340,1325.7 340,1382.9 
		728.4,1382.9 728.4,1422.5 989.9,1422.5 989.9,1372.3 	"/>
	<polygon class="st2" points="2872,1234.3 2477,1234.3 2477,1307.6 2091,1307.6 2091,1372.3 1900.3,1372.3 1900.3,1422.5 
		2161.8,1422.5 2161.8,1382.9 2550.3,1382.9 2550.3,1325.7 2872,1325.7 	"/>
	<polygon class="st2" points="859.4,1172.1 859.4,1107.9 462.4,1107.9 462.4,1034.6 53.4,1034.6 53.4,1133.9 373.6,1133.9 
		373.6,1191.2 767.1,1191.2 767.1,1230.8 1053.6,1230.8 1053.6,1172.1 	"/>
	<polygon class="st2" points="2836.8,1034.6 2427.8,1034.6 2427.8,1107.9 2030.8,1107.9 2030.8,1172.1 1836.6,1172.1 1836.6,1230.8 
		2123.2,1230.8 2123.2,1191.2 2516.6,1191.2 2516.6,1133.9 2836.8,1133.9 	"/>
	<polygon class="st2" points="1006.5,972.3 1006.5,908.1 556.8,908.1 556.8,834.8 118.6,834.8 118.6,942.2 446.4,942.2 446.4,999.4 
		871,999.4 871,1039.6 1293,1039.6 1293,972.3 	"/>
	<polygon class="st2" points="2771.6,834.8 2333.4,834.8 2333.4,908.1 1883.8,908.1 1883.8,972.3 1597.2,972.3 1597.2,1039.6 
		2019.3,1039.6 2019.3,999.4 2443.9,999.4 2443.9,942.2 2771.6,942.2 	"/>
	<polygon class="st3" points="2672.7,635.1 2177.4,635.1 2177.4,708.4 712.9,708.4 712.9,635.1 217.5,635.1 217.5,750.5 
		567.8,750.5 567.8,807.7 1094.8,807.7 1094.8,847.9 1795.4,847.9 1795.4,807.7 2322.4,807.7 2322.4,750.5 2672.7,750.5 	"/>
	<polygon class="st2" points="2462.4,1633.8 2462.4,1707.6 2070.5,1707.6 2024.3,1707.6 2024.3,1765.8 2024.3,1771.8 1735.7,1771.8 
		1735.7,1806 2070.5,1806 2070.5,1790.4 2070.5,1771.8 2070.5,1765.8 2513.1,1765.8 2513.1,1709.1 2860.9,1709.1 2860.9,1633.8 	"/>
	<polygon class="st3" points="2814.3,1833.6 2437.3,1833.6 2396.2,1833.6 2396.2,1900.8 2396.2,1907.4 1869.2,1907.4 1869.2,1957.5 
		2437.3,1957.5 2437.3,1945.5 2437.3,1907.4 2437.3,1900.8 2814.3,1900.8 	"/>
	<polygon class="st2" points="865.9,1771.8 865.9,1765.8 865.9,1707.6 819.8,1707.6 427.8,1707.6 427.8,1633.8 29.3,1633.8 
		29.3,1709.1 377.1,1709.1 377.1,1765.8 819.8,1765.8 819.8,1771.8 819.8,1791.4 819.8,1806 1154.5,1806 1154.5,1771.8 	"/>
	<polygon class="st3" points="494,1907.4 494,1900.8 494,1833.6 452.9,1833.6 76,1833.6 76,1900.8 452.9,1900.8 452.9,1907.4 
		452.9,1932.4 452.9,1957.5 1021,1957.5 1021,1907.4 	"/>
	<rect x="1207.4" y="2841.6" class="st3" width="54" height="8.6"/>
</g>
</svg>
